<?xml version="1.0" standalone="no"?>
<!DOCTYPE svg PUBLIC "-//W3C//DTD SVG 20010904//EN"
 "http://www.w3.org/TR/2001/REC-SVG-20010904/DTD/svg10.dtd">
<svg version="1.0" xmlns="http://www.w3.org/2000/svg"
 width="400.000000pt" height="400.000000pt" viewBox="0 0 400.000000 400.000000"
 preserveAspectRatio="xMidYMid meet">
<metadata>
Created by potrace 1.14, written by Peter Selinger 2001-2017
</metadata>
<g transform="translate(0.000000,400.000000) scale(0.100000,-0.100000)"
fill="#000000" stroke="none">
<path d="M1810 3900 c-200 -25 -393 -81 -565 -165 -626 -304 -993 -944 -1140
-1989 -80 -566 -46 -918 117 -1200 49 -85 207 -246 290 -294 302 -178 701
-217 1179 -116 614 129 1289 497 1744 949 410 408 595 822 555 1247 -69 727
-778 1397 -1640 1549 -132 24 -420 33 -540 19z m-880 -1520 l0 -70 -190 0
-190 0 0 -75 0 -75 170 0 170 0 0 -70 0 -70 -170 0 -170 0 0 -155 0 -155 -75
0 -75 0 0 370 0 370 265 0 265 0 0 -70z m2150 5 l0 -65 -75 0 -75 0 0 65 0 65
75 0 75 0 0 -65z m-1045 -146 c22 -6 53 -23 69 -37 51 -48 56 -73 56 -292 l0
-200 -70 0 -70 0 0 158 c0 86 -5 173 -10 193 -16 58 -92 79 -143 39 -35 -28
-47 -93 -47 -255 l0 -135 -75 0 -75 0 2 263 3 262 73 3 72 3 0 -27 c0 -26 1
-26 19 -10 45 40 124 55 196 35z m664 -17 c130 -68 159 -340 48 -461 -55 -59
-168 -79 -242 -41 -22 11 -40 20 -42 20 -1 0 -4 -55 -5 -122 l-3 -123 -72 -3
-73 -3 0 376 0 375 71 0 c63 0 71 -2 76 -20 4 -16 8 -18 19 -9 50 41 154 46
223 11z m874 -4 c43 -25 94 -81 99 -112 2 -15 -11 -25 -64 -47 -55 -22 -68
-25 -68 -13 0 9 -13 29 -29 45 -33 32 -67 37 -110 14 -66 -34 -80 -179 -25
-245 21 -25 33 -30 68 -30 39 0 86 26 86 48 0 4 4 13 8 20 11 16 126 -29 130
-51 5 -23 -59 -98 -103 -121 -61 -31 -158 -34 -224 -6 -222 96 -192 459 44
521 49 13 144 1 188 -23z m-2393 -165 c6 -212 10 -223 83 -223 33 0 49 6 66
24 33 35 40 82 41 244 l0 143 73 -3 72 -3 3 -262 2 -263 -75 0 c-75 0 -75 0
-75 27 l0 26 -22 -21 c-32 -29 -71 -42 -129 -42 -90 0 -156 47 -179 128 -5 20
-10 122 -10 225 l0 188 73 -3 72 -3 5 -182z m1900 -78 l0 -265 -75 0 -75 0 0
258 c0 142 3 262 7 265 3 4 37 7 75 7 l68 0 0 -265z"/>
<path d="M2503 2104 c-70 -35 -84 -179 -23 -244 24 -25 35 -30 77 -30 78 0
113 44 113 143 0 117 -75 176 -167 131z"/>
</g>
</svg>
